<svg id="Layer_1" data-name="Layer 1" xmlns="http://www.w3.org/2000/svg" viewBox="0 0 328.71 371.23"><path d="M183,41.45a.13.13,0,0,1,.22.1L170.4,143.84a5.94,5.94,0,0,0,5.87,6.65h.46l.06-.08,0,0h0a3.79,3.79,0,0,1,.29-.36h0s.12-.15.14-.17l.33-.4.34-.4.11-.13.09-.11c.11-.14.23-.27.34-.4s.22-.27.34-.4a.64.64,0,0,1,.09-.11h0l.06-.08.07-.09c.11-.14.23-.27.34-.4l.33-.4.1-.12.05-.05h0l0,0c.11-.14.22-.27.34-.4l.09-.12h0l.12-.15.06-.08c.11-.14.22-.27.34-.4l.33-.4h0s.12-.16.14-.17l.33-.41.34-.39v0h0a.27.27,0,0,1,.07-.08l.07-.09.33-.4.42-.5,0-.07L183,143l.33-.41.34-.4.1-.11,0-.05h0a1.11,1.11,0,0,1,.12-.15l.33-.4.28-.33h0l.06-.08.08-.09.33-.41.34-.4.13-.14h0l.06-.08.08-.09.33-.4c.11-.14.23-.27.34-.4a1.53,1.53,0,0,1,.14-.17h0v0l.07-.09h0s0,0,0,0h0v0l0,0,0,0h-3.54a.13.13,0,0,1-.12-.14L197.44,22.87A6.16,6.16,0,0,0,195,17a5.91,5.91,0,0,0-8,1L33.83,202a6.15,6.15,0,0,0-1.45,5,5.91,5.91,0,0,0,5.82,4.88h87.42l.12-.16.19-.22c.27-.34.55-.67.83-1l.84-1s.3-.37.33-.41l.46-.55.19-.22a2.11,2.11,0,0,1,.19-.23l.18-.22.56-.67c.26-.32.53-.64.81-.95l0-.06.22-.26.48-.57c.27-.34.56-.67.84-1l.15-.19.32-.38c.27-.34.55-.67.83-1l.14-.16,0-.05h0a2.62,2.62,0,0,1,.17-.21h0l.84-1,.12-.14h0l.1-.11.35-.43.51-.6H51.1a.12.12,0,0,1-.1-.2Z" transform="translate(-32.29 -15.93)"/><path d="M222.31,264.09c0-.54.06-1.09.06-1.63,0-.71-.06-1.43-.09-2.14a18.56,18.56,0,0,0-.51-4.2,7.8,7.8,0,0,0-1.43-3,1.77,1.77,0,0,0-1-.58h-2.72l-47.08,56.49a.12.12,0,0,1-.22-.09l7.05-56.37H164.48l-9.37,75a6.24,6.24,0,0,0,2.95,6.28,5.93,5.93,0,0,0,7.41-1.38l56.73-68.07Z" transform="translate(-32.29 -15.93)"/><path d="M318.06,140a6,6,0,0,0-3.88-1.29H218.36c0,.12,0,.25-.05.37-.13,1-.28,2.07-.42,3.11,0,.18-.06.36-.08.54s0,.15,0,.23c-.13,1.08-.28,2.16-.43,3.23,0,.11-.08.73-.19,1.47h0c-.07.77-.23,2.37-.25,2.53s0,.22,0,.34h84.56a.12.12,0,0,1,.1.2l-43.65,52.37h5.2l1.79,0H268c-.06,0,.3,0,.46,0h1.67c.12,0,.43,0,.47,0h2.73l45.6-54.71A6,6,0,0,0,318.06,140Z" transform="translate(-32.29 -15.93)"/><path d="M358.81,192.54a6,6,0,0,0-3.88-1.3H223.86a.12.12,0,0,1-.12-.14L238.23,75.16a5.91,5.91,0,0,0-10.41-4.52L74.58,254.53a6.17,6.17,0,0,0-1.46,5A5.92,5.92,0,0,0,79,264.43H210.18a.13.13,0,0,1,.12.14L195.85,380.16a6.22,6.22,0,0,0,3,6.26,5.86,5.86,0,0,0,2.85.74,5.91,5.91,0,0,0,4.54-2.13L359.63,200.94A5.94,5.94,0,0,0,358.81,192.54ZM210.32,361.63a.12.12,0,0,1-.22-.09l12.15-97.18h0c0-.11.05-.23.07-.34l0-.21c0-.45.05-.9.05-1.35,0-.71-.06-1.43-.09-2.14a18.56,18.56,0,0,0-.51-4.2,10.27,10.27,0,0,0-.72-1.87l0-.05a5.93,5.93,0,0,0-4-1.6H91.84a.12.12,0,0,1-.09-.2L223.72,94a.12.12,0,0,1,.22.09l-5.57,44.53-1.56,12.46-.12,1.11c0,.2,0,.4-.07.6a2.34,2.34,0,0,1,0,.26h0l-5.4,43.21a5.88,5.88,0,0,0,5.85,6.78H342.19a.12.12,0,0,1,.1.2Z" transform="translate(-32.29 -15.93)"/></svg>