<?xml version="1.0" encoding="utf-8"?>
<!-- Generator: Adobe Illustrator 25.3.1, SVG Export Plug-In . SVG Version: 6.00 Build 0)  -->
<svg version="1.1" id="Layer_1" xmlns="http://www.w3.org/2000/svg" xmlns:xlink="http://www.w3.org/1999/xlink" x="0px" y="0px"
	 viewBox="0 0 24 24" style="enable-background:new 0 0 24 24;" xml:space="preserve">
<style type="text/css">
	.st0{fill:#EEEEEE;}
</style>
<rect width="24" height="24"/>
<g>
	<path class="st0" d="M11.8,1c0-0.2-0.1-0.4-0.3-0.5c-0.2-0.1-0.4,0-0.6,0.1l-10,12c-0.1,0.1-0.2,0.4-0.1,0.5
		c0.1,0.2,0.3,0.3,0.5,0.3h5.5c0,0,0,0,0,0c0,0,0,0,0,0c0,0,0.1-0.1,0.1-0.1c0,0,0.1-0.1,0.1-0.1c0.2-0.2,0.3-0.4,0.5-0.5
		c0.1-0.1,0.1-0.2,0.2-0.2H2.4l8.2-9.9L9.8,8.8c0,0.1,0,0.3,0.1,0.4c0.1,0.1,0.1,0.1,0.2,0.1c0,0,0,0,0,0c0,0,0,0,0,0
		c0,0,0.1-0.1,0.1-0.1c0,0,0,0,0,0c0,0,0,0,0-0.1l0.1-0.1c0,0,0,0,0,0c0.1-0.1,0.1-0.1,0.2-0.2c0.1-0.1,0.2-0.3,0.3-0.4h0L11.8,1z"
		/>
	<path class="st0" d="M14.2,15.2C14.1,15.1,14.1,15.1,14.2,15.2c0-0.1,0-0.1,0-0.1c0,0,0,0,0,0c0,0,0,0,0,0c0-0.1-0.1-0.1-0.1-0.2
		c0,0,0,0,0,0c0,0,0,0,0,0c0,0,0,0,0,0c0,0,0,0,0,0c0,0,0,0,0,0c0,0,0,0,0,0c0,0,0,0,0,0L10,19.3l0.6-4.6c-0.2,0-0.3,0-0.5,0
		c-0.2,0-0.4,0-0.5,0l-0.8,6.2c0,0.2,0.1,0.4,0.3,0.5c0.1,0,0.1,0,0.2,0c0.1,0,0.3-0.1,0.4-0.2L14,16c0-0.1,0-0.2,0-0.3
		C14.1,15.6,14.1,15.4,14.2,15.2C14.2,15.2,14.2,15.2,14.2,15.2z"/>
	<path class="st0" d="M19.8,8.7c-0.1-0.2-0.3-0.3-0.5-0.3h-5.8c0,0.2,0,0.4-0.1,0.6c0,0.1,0,0.2,0,0.4h4.9l-1.9,2.3
		c0.2,0,0.4,0,0.7,0c0.2,0,0.4,0,0.6,0l2-2.4C19.8,9.1,19.8,8.9,19.8,8.7z"/>
	<path class="st0" d="M23.1,11c-0.1-0.2-0.3-0.3-0.5-0.3h-8.4l0.9-7.4c0-0.2-0.1-0.4-0.3-0.5c-0.2-0.1-0.4,0-0.6,0.1l-10,12
		c-0.1,0.1-0.2,0.4-0.1,0.5c0.1,0.2,0.3,0.3,0.5,0.3h8.4l-0.9,7.4c0,0.2,0.1,0.4,0.3,0.5c0.1,0,0.1,0,0.2,0c0.1,0,0.3-0.1,0.4-0.2
		l10-12C23.2,11.3,23.2,11.1,23.1,11z M13.4,21.5L14,16c0-0.1,0-0.2,0-0.3c0-0.2,0-0.3,0.1-0.5c0-0.1,0-0.2,0-0.3
		c0-0.1-0.1-0.1-0.1-0.2c-0.1-0.1-0.2-0.1-0.3-0.1h-2.5c0,0-0.2,0-0.3,0c-0.2,0-0.5,0-0.7,0c-0.2,0-0.5,0-0.7,0c-0.1,0-0.1,0-0.2,0
		c0,0,0,0-0.1,0H5.7l1.1-1.3l0,0c0,0,0,0,0,0c0,0,0,0,0,0c0,0,0.1-0.1,0.1-0.1c0,0,0.1-0.1,0.1-0.1c0.1-0.2,0.3-0.3,0.4-0.5l2.8-3.3
		c0,0,0,0,0,0c0,0,0,0,0,0c0,0,0,0,0,0c0,0,0.1-0.1,0.1-0.1c0,0,0,0,0,0c0,0,0,0,0-0.1l0.1-0.1L10.4,9c0-0.1,0.1-0.1,0.1-0.2
		c0.1-0.2,0.3-0.4,0.4-0.5c0-0.1,0.1-0.1,0.1-0.2c0,0,0,0,0.1-0.1c0,0,0,0,0,0l2.7-3.3l-0.4,3.3c0,0,0,0,0,0.1c0,0.1,0,0.1,0,0.2
		c0,0.2-0.1,0.5-0.1,0.7s-0.1,0.5-0.1,0.7c0,0.1,0,0.1,0,0.2c0,0,0,0.1,0,0.1h0l-0.1,1.1c0,0.1,0,0.3,0.1,0.4
		c0.1,0.1,0.2,0.2,0.4,0.2h2.4c0,0,0,0,0.1,0c0.2,0,0.5,0,0.9,0c0.4,0,0.9,0,1,0h3.6L13.4,21.5z"/>
</g>
</svg>
