<svg version="1.1" id="Layer_1" xmlns="http://www.w3.org/2000/svg" x="0" y="0" viewBox="0 0 24 24" xml:space="preserve"><style>.st0{fill:#eee}</style><path d="M0 0h24v24H0z"/><path class="st0" d="M11.5.5c-.2-.1-.4 0-.6.1l-10 12c-.1.1-.2.4-.1.5.1.2.3.3.5.3h5.4v-.1-.1-.1-.1-.1-.1l.1-.1v-.1-.1-.1H2.4l8.2-9.9-.8 6.3c0 .1 0 .3.1.4.1.1.1.1.2.1l.1-.1v-.1l.1-.1.2-.2c.1-.1.2-.3.3-.4l1-7.4c0-.2-.1-.4-.3-.5zM14 15.6v-.2c0-.1 0-.2-.1-.2v-.1L10 19.3l.6-4.6h-1l-.8 6.2c0 .2.1.4.3.5h.2c.1 0 .3-.1.4-.2L14 16v-.4c0 .1 0 .1 0 0 0 .1 0 .1 0 0zM19.8 8.7c-.1-.2-.3-.3-.5-.3h-5.8c0 .2 0 .4-.1.6v.4h4.9l-1.9 2.3H17.7l2-2.4c.1-.2.1-.4.1-.6z"/><path class="st0" d="M23.1 11c-.1-.2-.3-.3-.5-.3h-8.4l.9-7.4c0-.2-.1-.4-.3-.5-.2-.1-.4 0-.6.1l-10 12c-.1.1-.2.4-.1.5.1.2.3.3.5.3H13l-.9 7.4c0 .2.1.4.3.5h.2c.1 0 .3-.1.4-.2l10-12c.2-.1.2-.3.1-.4zm-9.7 10.5L14 16v-.3-.1-.2c0-.1 0-.2-.1-.2 0-.2-.1-.3-.2-.4h-2.4-2-3.6l1-1.2v-.1-.1-.1-.1-.1-.1l.1-.1v-.1-.1-.1-.1l2.7-3.2.1-.1v-.1l.8-.1c0-.1.1-.1.1-.2.1-.2.3-.4.4-.5 0-.1.1-.1.1-.2l.1-.1 2.7-3.3-.4 3.3V8.3c0 .2-.1.5-.1.7s-.1.5-.1.7V10l-.1 1.1c0 .1 0 .3.1.4.1.1.2.2.4.2h8l-8.2 9.8z"/></svg>