<?xml version="1.0" encoding="utf-8"?>
<!-- Generator: Adobe Illustrator 25.3.1, SVG Export Plug-In . SVG Version: 6.00 Build 0)  -->
<svg version="1.1" id="Layer_1" xmlns="http://www.w3.org/2000/svg" xmlns:xlink="http://www.w3.org/1999/xlink" x="0px" y="0px"
	 viewBox="0 0 24 24" style="enable-background:new 0 0 24 24;" xml:space="preserve">
<style type="text/css">
	.st0{fill:#EEEEEE;}
</style>
<rect width="24" height="24"/>
<g>
	<path class="st0" d="M11.5,0.5c-0.2-0.1-0.4,0-0.6,0.1l-10,12c-0.1,0.1-0.2,0.4-0.1,0.5c0.1,0.2,0.3,0.3,0.5,0.3h5.4c0,0,0,0,0,0
		c0,0,0,0,0,0c0,0,0,0,0,0c0,0,0,0,0-0.1s0,0,0-0.1c0,0,0,0,0,0c0,0,0,0,0,0c0,0,0,0,0,0c0,0,0,0,0-0.1s0,0,0-0.1c0,0,0,0,0,0
		c0,0,0,0,0,0c0,0,0,0,0,0c0,0,0,0,0,0c0,0,0,0,0,0c0,0,0,0,0,0c0,0,0,0,0-0.1s0,0,0-0.1c0,0,0,0,0,0c0,0,0,0,0,0c0,0,0,0,0.1-0.1
		c0,0,0,0,0,0c0,0,0,0,0-0.1c0,0,0,0,0,0c0,0,0,0,0,0c0,0,0,0,0,0c0,0,0,0,0-0.1c0,0,0,0,0,0c0,0,0,0,0,0c0,0,0,0,0,0c0,0,0,0,0-0.1
		c0,0,0,0,0,0H2.4l8.2-9.9L9.8,8.8c0,0.1,0,0.3,0.1,0.4C10,9.3,10,9.3,10.1,9.3l0.1-0.1c0,0,0,0,0-0.1L10.3,9
		c0.1-0.1,0.1-0.1,0.2-0.2c0.1-0.1,0.2-0.3,0.3-0.4l1-7.4C11.8,0.8,11.7,0.6,11.5,0.5z"/>
	<path class="st0" d="M14,15.6c0-0.1,0-0.2,0-0.2c0-0.1,0-0.2-0.1-0.2c0,0,0,0,0-0.1L10,19.3l0.6-4.6h-1l-0.8,6.2
		c0,0.2,0.1,0.4,0.3,0.5c0.1,0,0.1,0,0.2,0c0.1,0,0.3-0.1,0.4-0.2L14,16L14,15.6C14,15.7,14,15.7,14,15.6C14,15.7,14,15.7,14,15.6
		C14,15.6,14,15.6,14,15.6z"/>
	<path class="st0" d="M19.8,8.7c-0.1-0.2-0.3-0.3-0.5-0.3h-5.8c0,0.2,0,0.4-0.1,0.6c0,0.1,0,0.2,0,0.4h4.9l-1.9,2.3
		c0.2,0,0.4,0,0.7,0c0.2,0,0.4,0,0.6,0l2-2.4C19.8,9.1,19.8,8.9,19.8,8.7z"/>
	<path class="st0" d="M23.1,11c-0.1-0.2-0.3-0.3-0.5-0.3h-8.4l0.9-7.4c0-0.2-0.1-0.4-0.3-0.5c-0.2-0.1-0.4,0-0.6,0.1l-10,12
		C4.1,15,4,15.3,4.1,15.4c0.1,0.2,0.3,0.3,0.5,0.3H13l-0.9,7.4c0,0.2,0.1,0.4,0.3,0.5c0.1,0,0.1,0,0.2,0c0.1,0,0.3-0.1,0.4-0.2
		l10-12C23.2,11.3,23.2,11.1,23.1,11z M13.4,21.5L14,16v-0.3c0,0,0-0.1,0-0.1c0-0.1,0-0.2,0-0.2c0-0.1,0-0.2-0.1-0.2
		c0-0.2-0.1-0.3-0.2-0.4c0,0,0,0,0,0c0,0,0,0,0,0c0,0,0,0,0,0c0,0,0,0,0,0c0,0,0,0,0,0c0,0,0,0,0,0c0,0,0,0,0,0c0,0,0,0-0.1,0
		c0,0,0,0,0,0c0,0,0,0,0,0c0,0,0,0,0,0h-2.3c0,0-0.2,0-0.3,0H9.5c-0.1,0-0.1,0-0.2,0c0,0,0,0-0.1,0H5.7l1-1.2v0c0,0,0,0,0,0
		c0,0,0,0,0-0.1s0,0,0-0.1c0,0,0,0,0,0c0,0,0,0,0,0c0,0,0,0,0,0c0,0,0,0,0-0.1s0,0,0-0.1c0,0,0,0,0,0c0,0,0,0,0,0c0,0,0,0,0,0
		c0,0,0,0,0,0c0,0,0,0,0,0c0,0,0,0,0,0c0,0,0,0,0-0.1s0,0,0-0.1c0,0,0,0,0,0c0,0,0,0,0,0c0,0,0,0,0.1-0.1c0,0,0,0,0,0c0,0,0,0,0-0.1
		c0,0,0,0,0,0c0,0,0,0,0,0c0,0,0,0,0,0c0,0,0,0,0-0.1c0,0,0,0,0,0c0,0,0,0,0,0c0,0,0,0,0,0c0,0,0,0,0-0.1s0,0,0-0.1c0,0,0,0,0,0
		c0,0,0,0,0,0l2.7-3.2l0.1-0.1c0,0,0,0,0-0.1L10.4,9c0-0.1,0.1-0.1,0.1-0.2c0.1-0.2,0.3-0.4,0.4-0.5c0-0.1,0.1-0.1,0.1-0.2
		c0,0,0,0,0.1-0.1l2.7-3.3L13.4,8c0,0,0,0,0,0.1c0,0.1,0,0.1,0,0.2c0,0.2-0.1,0.5-0.1,0.7s-0.1,0.5-0.1,0.7c0,0.1,0,0.1,0,0.2V10
		l-0.1,1.1c0,0.1,0,0.3,0.1,0.4c0.1,0.1,0.2,0.2,0.4,0.2H16c0,0,0,0,0.1,0h5.5L13.4,21.5z"/>
</g>
</svg>
